<?xml version="1.0" encoding="UTF-8"?>
<svg width="151px" height="29px" viewBox="0 0 151 29" version="1.1" xmlns="http://www.w3.org/2000/svg" xmlns:xlink="http://www.w3.org/1999/xlink">
    <!-- Generator: Sketch 47.1 (45422) - http://www.bohemiancoding.com/sketch -->
    <title>Artboard</title>
    <desc>Created with Sketch.</desc>
    <defs></defs>
    <g id="Symbols" stroke="none" stroke-width="1" fill="none" fill-rule="evenodd">
        <g id="Artboard" fill="#E71C1C">
            <path d="M45.8160221,10.1005525 C45.9397796,9.67624097 46.1386727,9.35359227 46.4127072,9.13259669 C46.6867417,8.9116011 46.9784515,8.78342559 47.2878453,8.7480663 C47.5972391,8.71270701 47.8933688,8.76574515 48.1762431,8.90718232 C48.4591174,9.04861949 48.6801097,9.26961176 48.8392265,9.57016575 C49.0337026,9.46408787 49.2281758,9.36685127 49.4226519,9.27845304 C49.617128,9.19005481 49.8381203,9.11049759 50.0856354,9.03977901 C51.2171327,8.73922502 52.2204376,8.76132424 53.0955801,9.10607735 C53.9707226,9.45083045 54.6999971,9.98121189 55.2834254,10.6972376 C55.8668537,11.4132632 56.2823192,12.2530339 56.5298343,13.2165746 C56.7773493,14.1801153 56.8348073,15.1436416 56.7022099,16.1071823 C56.5696126,17.070723 56.2292845,17.9723715 55.6812155,18.8121547 C55.1331464,19.6519379 54.346414,20.3016552 53.3209945,20.761326 C52.6491679,21.06188 51.9464125,21.2519333 51.2127072,21.3314917 C50.4790019,21.4110501 49.7497274,21.4243097 49.0248619,21.3712707 C49.0248619,21.3889504 49.0292817,21.5303854 49.0381215,21.7955801 C49.0469614,22.0607748 49.0513812,22.396683 49.0513812,22.8033149 L49.0513812,24.1292818 C49.0513812,24.6066322 49.0381217,25.0662961 49.0116022,25.5082873 C48.9850827,25.9502785 48.949724,26.3436447 48.9055249,26.6883978 C48.8613257,27.0331509 48.7950281,27.2674027 48.7066298,27.3911602 C48.4767944,27.7270735 48.1939243,27.9392261 47.858011,28.0276243 C47.5220978,28.1160225 47.2038689,28.102763 46.9033149,27.9878453 C46.6027609,27.8729276 46.3419901,27.6784544 46.1209945,27.4044199 C45.8999989,27.1303854 45.7895028,26.798897 45.7895028,26.4099448 L45.7895028,10.2596685 L45.8160221,10.1005525 Z M49.2104972,13.5480663 C49.1574583,13.6364645 49.1309392,13.6762431 49.1309392,13.6674033 C49.1309392,13.6585635 49.0955805,13.6895024 49.0248619,13.760221 L49.0248619,18.1359116 C49.3784548,18.1889505 49.7320424,18.2154696 50.0856354,18.2154696 C50.4392283,18.2154696 50.8104953,18.1624315 51.1994475,18.0563536 C51.9950316,17.8618775 52.6226496,17.4773509 53.0823204,16.9027624 C53.5419912,16.3281739 53.7187851,15.6165788 53.6127072,14.7679558 C53.5596682,14.4143629 53.4580118,14.0475157 53.3077348,13.6674033 C53.1574578,13.2872909 52.9585648,12.9646422 52.7110497,12.6994475 C52.4635347,12.4342528 52.1718249,12.2486193 51.8359116,12.1425414 C51.4999983,12.0364636 51.1198916,12.0718223 50.6955801,12.2486188 C50.3950261,12.3723763 50.1254156,12.5580098 49.8867403,12.8055249 C49.6480651,13.0530399 49.422653,13.3005512 49.2104972,13.5480663 Z M70.8464088,19.8331492 C70.987846,20.3458589 70.9613269,20.7701641 70.7668508,21.1060773 C70.5723747,21.4419906 70.3027642,21.6674027 69.958011,21.7823204 C69.6132579,21.8972381 69.2375711,21.8839786 68.8309392,21.7425414 C68.4243074,21.6011043 68.0707197,21.3182342 67.7701657,20.8939227 C67.2751356,21.2651952 66.7933725,21.5259661 66.3248619,21.6762431 C65.8563512,21.8265201 65.32155,21.9104971 64.720442,21.9281768 C63.81878,21.9635361 63.0143682,21.8618796 62.3071823,21.6232044 C61.5999965,21.3845292 61.0033173,21.0265217 60.5171271,20.5491713 C60.0309368,20.0718208 59.6729293,19.4751417 59.4430939,18.759116 C59.2132585,18.0430903 59.1337013,17.2165793 59.2044199,16.279558 C59.2397792,15.8906058 59.3060769,15.5104991 59.4033149,15.1392265 C59.500553,14.7679539 59.6110491,14.4055266 59.7348066,14.0519337 C59.8762438,13.6629815 60.0751368,13.247516 60.3314917,12.8055249 C60.5878466,12.3635337 60.8486175,11.983427 61.1138122,11.6651934 C62.0685131,10.4983367 63.2618713,9.6585661 64.6939227,9.14585635 C64.9414377,9.05745812 65.2773459,8.97790091 65.7016575,8.90718232 C66.125969,8.83646373 66.554694,8.80552482 66.9878453,8.81436464 C67.4209966,8.82320446 67.8364621,8.88066245 68.2342541,8.98674033 C68.6320462,9.09281821 68.9281758,9.27845171 69.1226519,9.54364641 C69.2817688,9.75580217 69.3966847,9.94143567 69.4674033,10.1005525 C69.5381219,10.2596693 69.5779005,10.4276234 69.5867403,10.6044199 C69.5955802,10.7812164 69.5955802,10.9712697 69.5867403,11.1745856 C69.5779005,11.3779016 69.5734807,11.6298328 69.5734807,11.9303867 C69.5734807,12.4254168 69.5690608,12.90718 69.560221,13.3756906 C69.5513812,13.8442012 69.555801,14.3171247 69.5734807,14.7944751 L69.5734807,15.4176796 C69.5734807,15.6740344 69.5823204,15.943645 69.6,16.2265193 C69.6176796,16.5093937 69.6397789,16.7790042 69.6662983,17.0353591 C69.6928178,17.291714 69.7325964,17.4994467 69.7856354,17.6585635 L70.8464088,19.8331492 Z M65.2243094,18.639779 C65.4187855,18.5160215 65.6397778,18.3790063 65.8872928,18.2287293 C66.1348079,18.0784523 66.3558001,17.9060783 66.5502762,17.7116022 C66.3911594,16.774581 66.2983427,15.8375737 66.2718232,14.9005525 C66.2453037,13.9635312 66.2497236,13.0176843 66.2850829,12.0629834 C65.4894988,12.2044206 64.7734838,12.5491685 64.1370166,13.0972376 C63.5005493,13.6453066 63.0585648,14.290604 62.8110497,15.0331492 C62.7049718,15.3337032 62.6165749,15.6430923 62.5458564,15.961326 C62.4751378,16.2795596 62.4486187,16.5889488 62.4662983,16.8895028 C62.483978,17.2961346 62.5900543,17.6364627 62.7845304,17.9104972 C62.9790065,18.1845318 63.2132583,18.3922645 63.4872928,18.5337017 C63.7613273,18.6751388 64.0530371,18.754696 64.3624309,18.7723757 C64.6718248,18.7900553 64.9591147,18.7458569 65.2243094,18.639779 Z M76.941989,19.3558011 C77.1364651,19.5325976 77.2999993,19.7580097 77.4325967,20.0320442 C77.565194,20.3060787 77.6359116,20.5801091 77.6447514,20.8541436 C77.6535912,21.1281782 77.5917134,21.3845292 77.459116,21.6232044 C77.3265187,21.8618796 77.0922669,22.0430933 76.7563536,22.1668508 C76.4911589,22.2552491 76.1994491,22.2729284 75.8812155,22.2198895 C75.5629818,22.1668506 75.2491728,22.0607743 74.939779,21.9016575 C74.6303852,21.7425406 74.3563548,21.5524873 74.1176796,21.3314917 C73.8790043,21.1104961 73.7066304,20.8674046 73.6005525,20.6022099 C73.5651932,20.5138117 73.5386741,20.4121553 73.5209945,20.2972376 C73.5033148,20.1823199 73.4944751,20.0806634 73.4944751,19.9922652 L73.4944751,5.27403315 C73.4944751,4.86740128 73.6491697,4.52265335 73.9585635,4.23977901 C74.2679573,3.95690466 74.6082854,3.78895054 74.979558,3.7359116 C75.1563545,3.71823196 75.3464078,3.74475103 75.5497238,3.81546961 C75.7530397,3.8861882 75.943093,3.98784464 76.1198895,4.12044199 C76.296686,4.25303934 76.4425409,4.40773392 76.5574586,4.58453039 C76.6723763,4.76132685 76.7298343,4.94696035 76.7298343,5.14143646 L76.7298343,6.97127072 C76.7298343,7.73149551 76.7342541,8.56242643 76.7430939,9.4640884 C76.7519337,10.3657504 76.7563536,11.2983377 76.7563536,12.2618785 C76.7563536,13.2254192 76.7519337,14.1491669 76.7430939,15.0331492 C76.7342541,15.9171315 76.7298343,16.7259632 76.7298343,17.4596685 C76.7298343,18.1933738 76.7209946,18.7812133 76.7033149,19.2232044 L76.941989,19.3558011 Z M91.2055249,19.8331492 C91.346962,20.3458589 91.320443,20.7701641 91.1259669,21.1060773 C90.9314907,21.4419906 90.6618802,21.6674027 90.3171271,21.7823204 C89.972374,21.8972381 89.5966871,21.8839786 89.1900552,21.7425414 C88.7834234,21.6011043 88.4298358,21.3182342 88.1292818,20.8939227 C87.6342517,21.2651952 87.1524885,21.5259661 86.6839779,21.6762431 C86.2154673,21.8265201 85.680666,21.9104971 85.079558,21.9281768 C84.177896,21.9635361 83.3734842,21.8618796 82.6662983,21.6232044 C81.9591125,21.3845292 81.3624334,21.0265217 80.8762431,20.5491713 C80.3900528,20.0718208 80.0320453,19.4751417 79.8022099,18.759116 C79.5723745,18.0430903 79.4928173,17.2165793 79.5635359,16.279558 C79.5988952,15.8906058 79.6651929,15.5104991 79.7624309,15.1392265 C79.859669,14.7679539 79.9701651,14.4055266 80.0939227,14.0519337 C80.2353598,13.6629815 80.4342529,13.247516 80.6906077,12.8055249 C80.9469626,12.3635337 81.2077335,11.983427 81.4729282,11.6651934 C82.4276291,10.4983367 83.6209873,9.6585661 85.0530387,9.14585635 C85.3005537,9.05745812 85.636462,8.97790091 86.0607735,8.90718232 C86.485085,8.83646373 86.91381,8.80552482 87.3469613,8.81436464 C87.7801127,8.82320446 88.1955781,8.88066245 88.5933702,8.98674033 C88.9911622,9.09281821 89.2872918,9.27845171 89.481768,9.54364641 C89.6408848,9.75580217 89.7558008,9.94143567 89.8265193,10.1005525 C89.8972379,10.2596693 89.9370165,10.4276234 89.9458564,10.6044199 C89.9546962,10.7812164 89.9546962,10.9712697 89.9458564,11.1745856 C89.9370165,11.3779016 89.9325967,11.6298328 89.9325967,11.9303867 C89.9325967,12.4254168 89.9281768,12.90718 89.919337,13.3756906 C89.9104972,13.8442012 89.914917,14.3171247 89.9325967,14.7944751 L89.9325967,15.4176796 C89.9325967,15.6740344 89.9414364,15.943645 89.959116,16.2265193 C89.9767957,16.5093937 89.9988949,16.7790042 90.0254144,17.0353591 C90.0519338,17.291714 90.0917124,17.4994467 90.1447514,17.6585635 L91.2055249,19.8331492 Z M85.5834254,18.639779 C85.7779015,18.5160215 85.9988938,18.3790063 86.2464088,18.2287293 C86.4939239,18.0784523 86.7149162,17.9060783 86.9093923,17.7116022 C86.7502754,16.774581 86.6574587,15.8375737 86.6309392,14.9005525 C86.6044198,13.9635312 86.6088396,13.0176843 86.6441989,12.0629834 C85.8486148,12.2044206 85.1325999,12.5491685 84.4961326,13.0972376 C83.8596653,13.6453066 83.4176808,14.290604 83.1701657,15.0331492 C83.0640879,15.3337032 82.975691,15.6430923 82.9049724,15.961326 C82.8342538,16.2795596 82.8077347,16.5889488 82.8254144,16.8895028 C82.843094,17.2961346 82.9491703,17.6364627 83.1436464,17.9104972 C83.3381225,18.1845318 83.5723743,18.3922645 83.8464088,18.5337017 C84.1204434,18.6751388 84.4121531,18.754696 84.721547,18.7723757 C85.0309408,18.7900553 85.3182307,18.7458569 85.5834254,18.639779 Z M93.9066298,12.1690608 C93.5530369,12.0806625 93.2480676,11.9303878 92.9917127,11.718232 C92.7353578,11.5060763 92.558564,11.258565 92.461326,10.9756906 C92.3640879,10.6928163 92.3640879,10.4011065 92.461326,10.1005525 C92.558564,9.7999985 92.7751364,9.52596809 93.1110497,9.27845304 C93.3939241,9.06629728 93.7121529,8.96022099 94.0657459,8.96022099 L95.1,8.96022099 C95.1,8.83646347 95.0911603,8.56685291 95.0734807,8.15138122 C95.055801,7.73590952 95.0513812,7.28066546 95.060221,6.78563536 C95.0690608,6.29060526 95.0999997,5.81768181 95.1530387,5.36685083 C95.2060776,4.91601985 95.3033142,4.60221083 95.4447514,4.42541436 C95.7983443,3.93038427 96.235909,3.69613246 96.7574586,3.72265193 C97.2790081,3.7491714 97.7077331,4.00110259 98.0436464,4.47845304 C98.114365,4.56685127 98.1806627,4.67292756 98.2425414,4.79668508 C98.3044202,4.92044261 98.3353591,5.03535859 98.3353591,5.14143646 C98.3530388,5.77790373 98.3574586,6.41436146 98.3486188,7.05082873 C98.339779,7.687296 98.3353591,8.32375372 98.3353591,8.96022099 L100.430387,8.96022099 C100.74862,8.96022099 101.022651,9.06629728 101.252486,9.27845304 C101.482322,9.4906088 101.645856,9.73812013 101.743094,10.0209945 C101.840332,10.3038688 101.866851,10.5955786 101.822652,10.8961326 C101.778453,11.1966866 101.641438,11.4441979 101.411602,11.638674 C101.00497,11.9745873 100.532047,12.1513811 99.9928177,12.1690608 C99.4535885,12.1867404 98.9011078,12.1955801 98.3353591,12.1955801 C98.3353591,13.1679607 98.3309393,14.1403266 98.3220994,15.1127072 C98.3132596,16.0850877 98.3176795,17.0574537 98.3353591,18.0298343 C98.3353591,18.4541458 98.3574583,18.8872906 98.4016575,19.3292818 C98.4458566,19.7712729 98.4149177,20.1955781 98.3088398,20.6022099 C98.2204415,20.9204436 98.0701668,21.1723748 97.858011,21.358011 C97.6458553,21.5436473 97.4071836,21.6585633 97.141989,21.7027624 C96.8767943,21.7469615 96.6027638,21.7292822 96.3198895,21.6497238 C96.0370152,21.5701653 95.7718244,21.4243105 95.5243094,21.2121547 C95.4005519,21.0883972 95.3077351,20.8762446 95.2458564,20.5756906 C95.1839776,20.2751366 95.144199,19.9569078 95.1265193,19.6209945 C95.1088397,19.2320423 95.1088397,18.8165768 95.1265193,18.3745856 L95.1265193,16.9955801 C95.1265193,16.4298314 95.1220995,15.841992 95.1132597,15.2320442 C95.1044198,14.6220964 95.1,14.0430967 95.1,13.4950276 L95.1,12.1955801 L93.9066298,12.1690608 Z M113.553591,19.8331492 C113.695028,20.3458589 113.668509,20.7701641 113.474033,21.1060773 C113.279557,21.4419906 113.009946,21.6674027 112.665193,21.7823204 C112.32044,21.8972381 111.944753,21.8839786 111.538122,21.7425414 C111.13149,21.6011043 110.777902,21.3182342 110.477348,20.8939227 C109.982318,21.2651952 109.500555,21.5259661 109.032044,21.6762431 C108.563534,21.8265201 108.028732,21.9104971 107.427624,21.9281768 C106.525962,21.9635361 105.72155,21.8618796 105.014365,21.6232044 C104.307179,21.3845292 103.7105,21.0265217 103.224309,20.5491713 C102.738119,20.0718208 102.380112,19.4751417 102.150276,18.759116 C101.920441,18.0430903 101.840884,17.2165793 101.911602,16.279558 C101.946962,15.8906058 102.013259,15.5104991 102.110497,15.1392265 C102.207735,14.7679539 102.318231,14.4055266 102.441989,14.0519337 C102.583426,13.6629815 102.782319,13.247516 103.038674,12.8055249 C103.295029,12.3635337 103.5558,11.983427 103.820994,11.6651934 C104.775695,10.4983367 105.969054,9.6585661 107.401105,9.14585635 C107.64862,9.05745812 107.984528,8.97790091 108.40884,8.90718232 C108.833151,8.83646373 109.261876,8.80552482 109.695028,8.81436464 C110.128179,8.82320446 110.543644,8.88066245 110.941436,8.98674033 C111.339229,9.09281821 111.635358,9.27845171 111.829834,9.54364641 C111.988951,9.75580217 112.103867,9.94143567 112.174586,10.1005525 C112.245304,10.2596693 112.285083,10.4276234 112.293923,10.6044199 C112.302762,10.7812164 112.302762,10.9712697 112.293923,11.1745856 C112.285083,11.3779016 112.280663,11.6298328 112.280663,11.9303867 C112.280663,12.4254168 112.276243,12.90718 112.267403,13.3756906 C112.258563,13.8442012 112.262983,14.3171247 112.280663,14.7944751 L112.280663,15.4176796 C112.280663,15.6740344 112.289503,15.943645 112.307182,16.2265193 C112.324862,16.5093937 112.346961,16.7790042 112.373481,17.0353591 C112.4,17.291714 112.439779,17.4994467 112.492818,17.6585635 L113.553591,19.8331492 Z M107.931492,18.639779 C108.125968,18.5160215 108.34696,18.3790063 108.594475,18.2287293 C108.84199,18.0784523 109.062982,17.9060783 109.257459,17.7116022 C109.098342,16.774581 109.005525,15.8375737 108.979006,14.9005525 C108.952486,13.9635312 108.956906,13.0176843 108.992265,12.0629834 C108.196681,12.2044206 107.480666,12.5491685 106.844199,13.0972376 C106.207732,13.6453066 105.765747,14.290604 105.518232,15.0331492 C105.412154,15.3337032 105.323757,15.6430923 105.253039,15.961326 C105.18232,16.2795596 105.155801,16.5889488 105.173481,16.8895028 C105.19116,17.2961346 105.297237,17.6364627 105.491713,17.9104972 C105.686189,18.1845318 105.920441,18.3922645 106.194475,18.5337017 C106.46851,18.6751388 106.760219,18.754696 107.069613,18.7723757 C107.379007,18.7900553 107.666297,18.7458569 107.931492,18.639779 Z M121.399448,21.6895028 C120.886738,21.7071824 120.396135,21.6718236 119.927624,21.5834254 C119.459114,21.4950272 118.99503,21.3447524 118.535359,21.1325967 C118.305524,21.2563542 118.080112,21.318232 117.859116,21.318232 C117.63812,21.318232 117.434808,21.2828733 117.249171,21.2121547 C117.063535,21.1414361 116.904421,21.057459 116.771823,20.960221 C116.639226,20.8629829 116.546409,20.7878456 116.49337,20.7348066 C116.298894,20.4519323 116.183978,20.1337034 116.148619,19.7801105 C116.113259,19.4265176 116.228175,19.0906093 116.49337,18.7723757 L116.49337,5.14143646 C116.49337,4.7348046 116.634805,4.39447651 116.91768,4.12044199 C117.200554,3.84640747 117.527622,3.6740335 117.898895,3.60331492 C118.270168,3.53259633 118.628175,3.59447417 118.972928,3.78895028 C119.317681,3.98342639 119.551933,4.33701401 119.675691,4.84972376 C119.746409,5.16795739 119.803867,5.48176641 119.848066,5.79116022 C119.892265,6.10055403 119.918784,6.4585615 119.927624,6.86519337 C119.936464,7.27182524 119.936464,7.74032884 119.927624,8.27071823 C119.918784,8.80110762 119.896685,9.45524473 119.861326,10.2331492 C120.020443,10.1447509 120.183977,10.0607739 120.351934,9.98121547 C120.51989,9.90165706 120.692264,9.81768 120.869061,9.72928177 C121.364091,9.49944636 121.894472,9.35801131 122.460221,9.30497238 C123.02597,9.25193344 123.57845,9.28287235 124.11768,9.39779006 C124.656909,9.51270776 125.160771,9.72486033 125.629282,10.0342541 C126.097792,10.343648 126.482319,10.7458539 126.782873,11.240884 C127.207184,11.9480698 127.494474,12.7745809 127.644751,13.720442 C127.795028,14.6663031 127.795028,15.6033103 127.644751,16.5314917 C127.494474,17.4596731 127.185085,18.321543 126.716575,19.1171271 C126.248064,19.9127112 125.589507,20.5049704 124.740884,20.8939227 C124.210495,21.1414377 123.666854,21.331491 123.109945,21.4640884 C122.553036,21.5966857 121.982876,21.6718231 121.399448,21.6895028 Z M119.728729,14.9005525 L119.728729,18.0828729 C119.764089,18.1182322 119.799447,18.1447513 119.834807,18.1624309 C119.870166,18.1801106 119.905525,18.2066297 119.940884,18.241989 C121.532052,18.7723783 122.911044,18.409951 124.077901,17.1546961 C124.343095,16.4475103 124.471271,15.7801136 124.462431,15.1524862 C124.453591,14.5248587 124.334255,13.8486224 124.10442,13.1237569 C124.016022,12.9116011 123.870167,12.7745859 123.666851,12.7127072 C123.463535,12.6508284 123.282321,12.575691 123.123204,12.4872928 C122.84033,12.4342539 122.535361,12.487292 122.208287,12.6464088 C121.881214,12.8055257 121.567405,13.0044187 121.266851,13.2430939 C120.966297,13.4817691 120.692266,13.74254 120.444751,14.0254144 C120.197236,14.3082887 120.002763,14.5469604 119.861326,14.7414365 L119.728729,14.9005525 Z M134.310497,19.3558011 C134.504973,19.5325976 134.668508,19.7580097 134.801105,20.0320442 C134.933702,20.3060787 135.00442,20.5801091 135.01326,20.8541436 C135.022099,21.1281782 134.960222,21.3845292 134.827624,21.6232044 C134.695027,21.8618796 134.460775,22.0430933 134.124862,22.1668508 C133.859667,22.2552491 133.567957,22.2729284 133.249724,22.2198895 C132.93149,22.1668506 132.617681,22.0607743 132.308287,21.9016575 C131.998893,21.7425406 131.724863,21.5524873 131.486188,21.3314917 C131.247513,21.1104961 131.075139,20.8674046 130.969061,20.6022099 C130.933701,20.5138117 130.907182,20.4121553 130.889503,20.2972376 C130.871823,20.1823199 130.862983,20.0806634 130.862983,19.9922652 L130.862983,5.27403315 C130.862983,4.86740128 131.017678,4.52265335 131.327072,4.23977901 C131.636466,3.95690466 131.976794,3.78895054 132.348066,3.7359116 C132.524863,3.71823196 132.714916,3.74475103 132.918232,3.81546961 C133.121548,3.8861882 133.311601,3.98784464 133.488398,4.12044199 C133.665194,4.25303934 133.811049,4.40773392 133.925967,4.58453039 C134.040885,4.76132685 134.098343,4.94696035 134.098343,5.14143646 L134.098343,6.97127072 C134.098343,7.73149551 134.102762,8.56242643 134.111602,9.4640884 C134.120442,10.3657504 134.124862,11.2983377 134.124862,12.2618785 C134.124862,13.2254192 134.120442,14.1491669 134.111602,15.0331492 C134.102762,15.9171315 134.098343,16.7259632 134.098343,17.4596685 C134.098343,18.1933738 134.089503,18.7812133 134.071823,19.2232044 L134.310497,19.3558011 Z M148.202762,17.4464088 C148.627074,17.340331 149.002761,17.3359111 149.329834,17.4331492 C149.656908,17.5303872 149.908839,17.6939215 150.085635,17.9237569 C150.262432,18.1535923 150.341989,18.4364624 150.324309,18.7723757 C150.30663,19.108289 150.156355,19.4618766 149.873481,19.8331492 C149.643645,20.1337032 149.325416,20.3900542 148.918785,20.6022099 C148.512153,20.8143657 148.132046,20.9823198 147.778453,21.1060773 C146.91215,21.424311 146.090059,21.6453032 145.312155,21.7690608 C144.53425,21.8928183 143.804976,21.8928183 143.124309,21.7690608 C142.443643,21.6453032 141.807185,21.3889522 141.214917,21 C140.622649,20.6110478 140.070168,20.062987 139.557459,19.3558011 C139.203866,18.8784507 138.943095,18.3348097 138.775138,17.7248619 C138.607181,17.1149141 138.514365,16.4917159 138.496685,15.8552486 C138.479005,15.2187813 138.532044,14.5911633 138.655801,13.9723757 C138.779559,13.3535881 138.956352,12.7966876 139.186188,12.3016575 C139.486742,11.6828698 139.964085,11.1171296 140.618232,10.6044199 C141.272379,10.0917101 141.997234,9.68508438 142.792818,9.38453039 C143.588402,9.0839764 144.401653,8.91160243 145.232597,8.86740331 C146.06354,8.8232042 146.797234,8.95137971 147.433702,9.2519337 C147.964091,9.49944875 148.419335,9.85745622 148.799448,10.3259669 C149.17956,10.7944775 149.440331,11.3027597 149.581768,11.8508287 C149.723205,12.3988978 149.736465,12.9513784 149.621547,13.5082873 C149.506629,14.0651962 149.219339,14.5734784 148.759669,15.0331492 C148.317677,15.4751403 147.831494,15.8331478 147.301105,16.1071823 C146.770716,16.3812168 146.222655,16.6198885 145.656906,16.8232044 C145.091157,17.0265204 144.512158,17.1988943 143.91989,17.3403315 C143.327621,17.4817687 142.757461,17.6408831 142.209392,17.8176796 C142.580665,18.2419911 143.00497,18.5116016 143.48232,18.6265193 C143.959671,18.741437 144.459113,18.7635363 144.980663,18.6928177 C145.502213,18.6220991 146.028174,18.4762442 146.558564,18.2552486 C147.088953,18.034253 147.583976,17.7911615 148.043646,17.5259669 L148.202762,17.4464088 Z M0.345767705,9.33333333 C2.04302987,12.8099561 9.7869306,15.4358974 19.0834404,15.4358974 C28.3799502,15.4358974 36.1238509,12.8099561 37.8211131,9.33333333 C38.0480443,9.79817273 38.1668808,10.2782196 38.1668808,10.7692308 C38.1668808,14.9326081 29.6229335,18.3076923 19.0834404,18.3076923 C8.54394729,18.3076923 0,14.9326081 0,10.7692308 C0,10.2782196 0.11883646,9.79817273 0.345767705,9.33333333 Z M0.345767705,12.5641026 C2.04302987,16.0407253 9.7869306,18.6666667 19.0834404,18.6666667 C28.3799502,18.6666667 36.1238509,16.0407253 37.8211131,12.5641026 C38.0480443,13.028942 38.1668808,13.5089889 38.1668808,14 C38.1668808,18.1633773 29.6229335,21.5384615 19.0834404,21.5384615 C8.54394729,21.5384615 0,18.1633773 0,14 C0,13.5089889 0.11883646,13.028942 0.345767705,12.5641026 Z M0.345767705,15.7948718 C2.04302987,19.2714945 9.7869306,21.8974359 19.0834404,21.8974359 C28.3799502,21.8974359 36.1238509,19.2714945 37.8211131,15.7948718 C38.0480443,16.2597112 38.1668808,16.7397581 38.1668808,17.2307692 C38.1668808,21.3941466 29.6229335,24.7692308 19.0834404,24.7692308 C8.54394729,24.7692308 0,21.3941466 0,17.2307692 C0,16.7397581 0.11883646,16.2597112 0.345767705,15.7948718 Z M0.345767705,19.025641 C2.04302987,22.5022638 9.7869306,25.1282051 19.0834404,25.1282051 C28.3799502,25.1282051 36.1238509,22.5022638 37.8211131,19.025641 C38.0480443,19.4904804 38.1668808,19.9705273 38.1668808,20.4615385 C38.1668808,24.6249158 29.6229335,28 19.0834404,28 C8.54394729,28 0,24.6249158 0,20.4615385 C0,19.9705273 0.11883646,19.4904804 0.345767705,19.025641 Z M142.845856,12.8850829 L143.323204,12.6198895 C143.676797,12.4254134 144.118782,12.2751387 144.649171,12.1690608 C145.179561,12.0629829 145.692263,12.0983417 146.187293,12.2751381 C146.32873,12.3281771 146.421547,12.4209938 146.465746,12.5535912 C146.509945,12.6861885 146.532044,12.8232037 146.532044,12.9646409 C146.532044,13.2121559 146.35525,13.4419879 146.001657,13.6541436 C145.648065,13.8662994 145.21492,14.0607726 144.70221,14.2375691 C144.1895,14.4143655 143.645859,14.5823196 143.071271,14.7414365 C142.496682,14.9005533 141.97956,15.050828 141.51989,15.1922652 C141.608288,14.5734776 141.749723,14.0917144 141.944199,13.7469613 C142.138675,13.4022082 142.439224,13.1149183 142.845856,12.8850829 Z M19.0834404,15.0769231 C8.54394729,15.0769231 0,11.7018389 0,7.53846154 C0,3.37508419 8.54394729,0 19.0834404,0 C29.6229335,0 38.1668808,3.37508419 38.1668808,7.53846154 C38.1668808,11.7018389 29.6229335,15.0769231 19.0834404,15.0769231 Z M19.0834404,11.4871795 C24.2180652,11.4871795 28.3805011,9.55855995 28.3805011,7.17948718 C28.3805011,4.80041441 24.2180652,2.87179487 19.0834404,2.87179487 C13.9488155,2.87179487 9.78637969,4.80041441 9.78637969,7.17948718 C9.78637969,9.55855995 13.9488155,11.4871795 19.0834404,11.4871795 Z" id="Combined-Shape"></path>
        </g>
    </g>
</svg>